HIERARCHY
ROOT root
{
	OFFSET	0	13.1	24.9
	CHANNELS 6  Xposition Yposition Zposition Xrotation Yrotation Zrotation
	JOINT spine_1
	{
		OFFSET	0	9.99999	0
		CHANNELS 3  Xrotation Yrotation Zrotation
		JOINT spine_2
		{
			OFFSET	0	112	-10
			CHANNELS 3  Xrotation Yrotation Zrotation
			JOINT spine_3
			{
				OFFSET	0	206.5	19.3
				CHANNELS 3  Xrotation Yrotation Zrotation
				JOINT spine_4
				{
					OFFSET	0	110.4	14.6
					CHANNELS 3  Xrotation Yrotation Zrotation
					JOINT neck_1
					{
						OFFSET	0	71.8	-50.3
						CHANNELS 3  Xrotation Yrotation Zrotation
						JOINT neck_2
						{
							OFFSET	0	86.2	-25.8
							CHANNELS 3  Xrotation Yrotation Zrotation
							JOINT head_ee
							{
								OFFSET	0	179.8	-8.7
								CHANNELS 3  Xrotation Yrotation Zrotation
								End Site
								{
									OFFSET	1	0	0
								}
							}
						}
					}
					JOINT left_clavicle
					{
						OFFSET	-43.2	22.4	-70.8
						CHANNELS 3  Xrotation Yrotation Zrotation
						JOINT left_shoulder
						{
							OFFSET	-93.9	-5.79999	48.7
							CHANNELS 3  Xrotation Yrotation Zrotation
							JOINT left_elbow
							{
								OFFSET	-291.4	-30.8	15.2
								CHANNELS 3  Xrotation Yrotation Zrotation
								JOINT left_lowarm_twist
								{
									OFFSET	-110.7	-3.89999	13.6
									CHANNELS 3  Xrotation Yrotation Zrotation
									JOINT left_hand
									{
										OFFSET	-110.7	-3.89999	13.6
										CHANNELS 3  Xrotation Yrotation Zrotation
										JOINT left_ee
										{
											OFFSET	-80.8	-5.10001	12.1
											CHANNELS 3  Xrotation Yrotation Zrotation
											End Site
											{
												OFFSET	1	0	0
											}
										}
									}
								}
							}
						}
					}
					JOINT right_clavicle
					{
						OFFSET	43.2	22.4	-70.8
						CHANNELS 3  Xrotation Yrotation Zrotation
						JOINT right_shoulder
						{
							OFFSET	93.9	-5.79999	48.7
							CHANNELS 3  Xrotation Yrotation Zrotation
							JOINT right_elbow
							{
								OFFSET	291.4	-30.8	15.2
								CHANNELS 3  Xrotation Yrotation Zrotation
								JOINT right_lowarm_twist
								{
									OFFSET	110.7	-3.89999	13.6
									CHANNELS 3  Xrotation Yrotation Zrotation
									JOINT right_hand
									{
										OFFSET	110.7	-3.89999	13.6
										CHANNELS 3  Xrotation Yrotation Zrotation
										JOINT right_ee
										{
											OFFSET	80.8	-5.10001	12.1
											CHANNELS 3  Xrotation Yrotation Zrotation
											End Site
											{
												OFFSET	1	0	0
											}
										}
									}
								}
							}
						}
					}
				}
			}
		}
	}
	JOINT left_hip
	{
		OFFSET	-82.8	-127.5	0.300001
		CHANNELS 3  Xrotation Yrotation Zrotation
		JOINT left_knee
		{
			OFFSET	-28.2	-396.7	2.2
			CHANNELS 3  Xrotation Yrotation Zrotation
			JOINT left_ankle
			{
				OFFSET	-11.7	-411.3	35.4
				CHANNELS 3  Xrotation Yrotation Zrotation
				JOINT left_toes
				{
					OFFSET	0	-60	-88.6
					CHANNELS 3  Xrotation Yrotation Zrotation
					JOINT left_foot_ee
					{
						OFFSET	-22.5	-16.5	-42.2
						CHANNELS 3  Xrotation Yrotation Zrotation
						End Site
						{
							OFFSET	1	0	0
						}
					}
				}
			}
		}
	}
	JOINT right_hip
	{
		OFFSET	82.8	-127.5	0.300001
		CHANNELS 3  Xrotation Yrotation Zrotation
		JOINT right_knee
		{
			OFFSET	28.2	-396.7	2.2
			CHANNELS 3  Xrotation Yrotation Zrotation
			JOINT right_ankle
			{
				OFFSET	11.7	-411.3	35.4
				CHANNELS 3  Xrotation Yrotation Zrotation
				JOINT right_toes
				{
					OFFSET	0	-60	-88.6
					CHANNELS 3  Xrotation Yrotation Zrotation
					JOINT right_foot_ee
					{
						OFFSET	22.5	-16.5	-42.2
						CHANNELS 3  Xrotation Yrotation Zrotation
						End Site
						{
							OFFSET	1	0	0
						}
					}
				}
			}
		}
	}
}
MOTION
Frames: 10
Frame Time: 0.02
3765.67 748.462 -1157.47 -8.44232 72.7527 14.5549 0.387695 -0.449355 -2.66492 0.391603 -0.278931 -2.68809 0.406397 0.273305 -2.68867 0.396342 -0.154591 -2.69809 -8.22878 11.6828 11.6777 -7.89144 13.6106 14.0486 -0.0 0.0 -0.0 9.35777 10.9331 17.5723 -6.73701 -20.8071 67.7011 0.317979 -8.95174 0.0248909 -12.8802 -0.627522 1.51915 1.06349 -1.88416 6.35056 -0.0 0.0 -0.0 5.46327 13.5534 -9.93423 -19.3992 9.14118 -63.2538 1.51099 36.8124 -0.502847 13.9116 -0.278813 1.75086 -0.0989804 -20.3406 -7.60942 0.0 0.0 0.0 -0.144385 12.2551 -0.172059 0.691485 -0.0290912 -0.102124 27.7891 7.57486 -3.64796 -18.8232 0.0 0.0 -0.0 0.0 -0.0 5.67844 -4.44086 -3.65653 -3.21124 -0.118833 -0.478433 8.95586 29.5213 1.60916 11.6784 -0.0 -0.0 0.0 0.0 0.0 
3764.85 750.432 -1159.28 -8.68322 72.5104 14.6772 0.394023 -0.460903 -2.70377 0.398044 -0.287987 -2.72759 0.413509 0.272126 -2.72922 0.403152 -0.162152 -2.73795 -8.35322 11.6382 11.7603 -8.0116 13.5029 14.1297 -0.0 0.0 -0.0 9.35018 11.1313 17.5384 -6.73825 -20.9862 67.4509 0.314104 -8.84437 0.0242914 -12.9854 -0.634035 1.53093 1.04306 -1.72033 6.28006 -0.0 0.0 -0.0 5.48567 13.2705 -10.0007 -19.3189 9.074 -63.0001 1.495 36.5205 -0.493299 14.1103 -0.279696 1.77623 -0.0879781 -20.3263 -7.66973 0.0 0.0 0.0 -0.395211 11.5689 -0.178065 0.687345 -0.0289134 -0.101514 27.7241 7.67878 -3.64087 -18.9775 0.0 0.0 -0.0 0.0 -0.0 5.75568 -4.44469 -3.55152 -3.17184 -0.117538 -0.472525 9.04188 29.5091 1.62376 11.7223 -0.0 -0.0 0.0 0.0 0.0 
3764.73 748.846 -1159.27 -7.91814 71.7039 13.86 0.378171 -0.459113 -2.69595 0.382169 -0.286698 -2.71967 0.39754 0.272538 -2.72113 0.387244 -0.160469 -2.73002 -8.97749 11.2585 12.3959 -8.59541 12.5156 14.7134 -0.0 0.0 -0.0 9.07499 10.9673 17.0535 -7.10051 -21.4796 67.645 0.357812 -10.0515 0.0314665 -13.0237 -0.636408 1.53522 1.37114 -1.59295 8.55126 -0.0 0.0 -0.0 5.4012 12.3303 -9.88319 -19.6466 9.69378 -62.5475 1.59278 38.2711 -0.552688 13.8611 -0.278575 1.74441 -0.202094 -21.0642 -7.27379 0.0 0.0 0.0 -0.484806 11.6374 0.0719825 1.05931 -0.0450682 -0.156306 26.9356 10.7898 -3.56189 -18.6106 0.0 0.0 -0.0 0.0 -0.0 5.65718 -4.44266 -3.82549 -3.3398 -0.12303 -0.497716 9.39887 28.6393 1.66617 11.9107 -0.0 -0.0 0.0 0.0 0.0 
3762.78 749.885 -1161.61 -9.47582 71.6909 15.2362 0.392693 -0.496682 -2.85461 0.397172 -0.314107 -2.8804 0.414933 0.27752 -2.88415 0.403371 -0.181264 -2.89179 -8.80308 11.7902 13.052 -8.37617 13.0028 15.4548 -0.0 0.0 -0.0 9.31661 11.0243 17.488 -8.00916 -23.0181 67.3505 0.388887 -10.9043 0.0371179 -12.9282 -0.63049 1.52453 1.45695 -2.3144 8.83826 -0.0 0.0 -0.0 5.47667 11.1927 -10.1133 -19.9692 9.95134 -61.5635 1.60565 38.4956 -0.560681 13.7826 -0.278194 1.73439 -0.363393 -21.9389 -6.66265 0.0 0.0 0.0 -0.26212 11.6798 0.119078 1.25841 -0.0538614 -0.185591 28.3918 11.6859 -3.73005 -18.4143 0.0 0.0 -0.0 0.0 -0.0 5.91841 -3.07066 -3.70159 -2.198 -0.0842398 -0.326779 9.83287 29.5042 1.7597 11.8128 -0.0 -0.0 0.0 0.0 0.0 
3762.8 749.318 -1163.75 -8.98647 70.6251 14.5554 0.383219 -0.365272 -2.77901 0.387496 -0.187767 -2.79661 0.398396 0.385138 -2.77633 0.387645 -0.0579863 -2.8023 -9.11172 11.6692 13.5572 -8.64807 12.5126 15.941 -0.0 0.0 -0.0 9.06633 10.6413 17.0682 -8.07887 -23.4829 67.2165 0.371555 -10.4292 0.0339097 -12.8026 -0.622729 1.51045 1.64211 -1.88382 10.2752 -0.0 0.0 -0.0 5.40411 10.4068 -10.0075 -19.6671 10.1212 -61.4619 1.66391 39.494 -0.597343 13.8875 -0.2787 1.74778 -0.396189 -21.9227 -6.46389 0.0 0.0 0.0 -0.218503 11.7109 0.204358 1.41443 -0.0608238 -0.20852 28.4825 13.2799 -3.75133 -18.4102 0.0 0.0 -0.0 0.0 -0.0 5.69344 -4.13905 -3.90084 -1.46308 -0.0574715 -0.21717 9.59441 29.0962 1.70955 11.8545 -0.0 -0.0 0.0 0.0 0.0 
3762.14 750.019 -1165.2 -9.3642 70.3206 14.8042 0.42724 -0.30777 -2.83126 0.43169 -0.12706 -2.84509 0.439667 0.452496 -2.81177 0.428635 0.00293733 -2.84792 -8.95296 11.8512 13.9411 -8.45907 12.5346 16.3423 -0.0 0.0 -0.0 8.87998 10.5352 16.7378 -8.19257 -24.2651 66.844 0.420676 -11.7716 0.0433675 -12.7661 -0.620479 1.50636 1.70695 -2.07973 10.6377 -0.0 0.0 -0.0 5.50958 9.9531 -10.2544 -19.6705 10.0704 -60.9735 1.65054 39.2672 -0.588857 13.9863 -0.279155 1.7604 -0.462884 -22.369 -6.25004 0.0 0.0 0.0 -0.219571 11.7028 0.39347 1.38984 -0.0597225 -0.204907 28.5881 14.55 -3.7742 -18.4619 0.0 0.0 -0.0 0.0 -0.0 5.88624 -3.40816 -3.9158 -1.17428 -0.0465673 -0.174189 9.44169 29.9778 1.70337 11.8147 -0.0 -0.0 0.0 0.0 0.0 
3759.94 749.999 -1167.46 -8.13963 70.3846 13.6897 0.305182 -0.390602 -2.82416 0.309594 -0.210176 -2.84327 0.321933 0.376451 -2.82608 0.310796 -0.0744118 -2.85005 -10.3605 10.8047 13.0365 -9.93964 11.6154 15.3294 -0.0 0.0 -0.0 8.18272 10.9724 15.4421 -10.0723 -27.5874 67.0801 0.578452 -15.9897 0.0812439 -12.2421 -0.588479 1.44743 1.27378 -1.20442 8.05036 -0.0 0.0 -0.0 5.463 9.58203 -10.1777 -19.655 10.6603 -60.8133 1.61434 38.6462 -0.566097 13.9718 -0.27909 1.75854 -0.601169 -26.5711 -7.11935 0.0 0.0 0.0 -0.287565 11.1576 0.342478 0.577747 -0.0242213 -0.08535 28.3893 16.4125 -3.77161 -18.9545 0.0 0.0 -0.0 0.0 -0.0 6.11728 -2.17344 -3.74556 -3.48543 -0.127733 -0.519572 8.99978 29.709 1.62082 13.4588 -0.0 -0.0 0.0 0.0 0.0 
3758.95 750.34 -1169.63 -8.42398 69.5248 13.9854 0.389026 -0.416378 -2.74442 0.393184 -0.240968 -2.76534 0.406567 0.326227 -2.75658 0.395981 -0.113045 -2.7735 -10.1058 10.5124 12.1578 -9.74403 11.5898 14.3946 -0.0 0.0 -0.0 7.71292 11.6054 14.5619 -10.3001 -28.7042 67.1554 0.679151 -18.5946 0.111184 -11.6431 -0.552564 1.37973 1.03728 -0.531956 6.72817 -0.0 0.0 -0.0 5.58659 9.26924 -10.4526 -19.7712 11.0136 -60.5424 1.58402 38.1176 -0.547271 14.2706 -0.280343 1.79669 -0.577613 -27.7472 -7.70916 0.0 0.0 0.0 -0.644123 11.1961 0.111401 0.977309 -0.041476 -0.144235 29.4843 18.0472 -3.9157 -19.0141 0.0 0.0 -0.0 0.0 -0.0 6.61092 -1.97773 -3.87891 -4.00405 -0.144025 -0.597496 8.71319 30.2413 1.58251 14.5837 -0.0 -0.0 0.0 0.0 0.0 
3757.17 747.049 -1168.99 -7.41532 68.8182 12.8256 0.347295 -0.416265 -2.68972 0.351287 -0.244332 -2.71074 0.364587 0.313802 -2.70358 0.354406 -0.116953 -2.71921 -10.7973 10.1151 11.5491 -10.4806 11.4352 13.7657 -0.0 0.0 -0.0 7.68233 12.4161 14.4538 -10.918 -30.0601 66.6786 0.710454 -19.3889 0.121371 -11.6309 -0.551839 1.37834 0.460933 0.535069 3.30091 -0.0 0.0 -0.0 5.45037 10.8516 -10.0783 -20.9707 13.3505 -59.8218 1.56477 37.778 -0.535435 15.0441 -0.282663 1.89545 -0.53497 -29.0341 -8.43724 0.0 0.0 0.0 -1.21418 10.3742 0.20299 0.72374 -0.0304782 -0.106879 29.9517 18.1045 -3.96856 -19.4741 0.0 0.0 -0.0 0.0 -0.0 6.98002 -1.49759 -3.86892 -5.10914 -0.176385 -0.764004 9.75428 29.2375 1.74007 14.8342 -0.0 -0.0 0.0 0.0 0.0 
3755.2 745.548 -1169.56 -6.73124 68.6361 12.274 0.37796 -0.516537 -2.67354 0.38187 -0.34543 -2.70096 0.399957 0.211045 -2.71476 0.38974 -0.220187 -2.71404 -10.9451 9.77058 11.1054 -10.6548 11.1165 13.2647 -0.0 0.0 -0.0 7.21427 14.0005 13.5429 -10.7329 -31.1069 67.097 0.784347 -21.2332 0.147024 -11.7524 -0.559063 1.39211 0.609265 0.417901 4.24423 -0.0 0.0 -0.0 5.42256 11.5446 -9.97783 -21.2694 12.8202 -59.9582 1.49576 36.5345 -0.493753 15.5919 -0.2835 1.96542 -0.469721 -28.8862 -8.73567 0.0 0.0 0.0 -1.47389 11.0703 0.393573 0.531098 -0.0222337 -0.0784675 30.1189 18.0781 -3.9867 -20.2859 0.0 0.0 -0.0 0.0 -0.0 6.78785 -1.21162 -3.98199 -5.42367 -0.185006 -0.811504 10.2486 29.0765 1.82046 16.254 -0.0 -0.0 0.0 0.0 0.0 
